<svg width="18" height="20" viewBox="0 0 18 20" fill="none" xmlns="http://www.w3.org/2000/svg">
<path d="M15.3608 6.97205C15.5436 6.97205 15.7094 7.0518 15.8404 7.18654C15.9626 7.33046 16.0241 7.50921 16.0063 7.69804C16.0063 7.76037 15.5177 13.9386 15.2387 16.5392C15.0639 18.1351 14.0351 19.104 12.4919 19.1306C11.3053 19.1572 10.1455 19.1663 9.00348 19.1663C7.79103 19.1663 6.60533 19.1572 5.45439 19.1306C3.9629 19.0948 2.93321 18.1085 2.76739 16.5392C2.48032 13.9295 2.00069 7.76037 1.99178 7.69804C1.98286 7.50921 2.04349 7.33046 2.16651 7.18654C2.28776 7.0518 2.46249 6.97205 2.64614 6.97205H15.3608ZM10.8927 0.833008C11.703 0.833008 12.427 1.39859 12.6365 2.20524L12.7862 2.8744C12.9075 3.41982 13.38 3.80573 13.9238 3.80573H16.5965C16.9531 3.80573 17.25 4.10181 17.25 4.47855V4.82688C17.25 5.19446 16.9531 5.49971 16.5965 5.49971H1.40437C1.04687 5.49971 0.75 5.19446 0.75 4.82688V4.47855C0.75 4.10181 1.04687 3.80573 1.40437 3.80573H4.0771C4.62003 3.80573 5.09253 3.41982 5.21466 2.87532L5.35463 2.25016C5.57216 1.39859 6.28804 0.833008 7.10733 0.833008H10.8927Z" fill="#F1416C"/>
</svg>
